<svg xmlns="http://www.w3.org/2000/svg" viewBox="0 0 640 512"><!--! Font Awesome Pro 6.4.0 by @fontawesome - https://fontawesome.com License - https://fontawesome.com/license (Commercial License) Copyright 2023 Fonticons, Inc. --><path d="M194.9 122.8l54.8 87.7c7.7 12.3-2.2 28.3-16.7 26.4l-62.8-8c-9.3-1.2-16.7-8.6-17.9-17.9l-8-62.8c-1.9-14.5 14.1-24.4 26.4-16.7l24.2 15.2zM320 96c53 0 96 43 96 96s-43 96-96 96s-96-43-96-96s43-96 96-96zM54.6 72.4C-12.4 134.7-16.6 222.8 39.1 289.3L289.3 39.1C222.8-16.6 134.7-12.4 72.4 54.6L54.6 72.4zM585.4 439.6c67-62.3 71.2-150.4 15.5-216.9L350.7 472.9c66.5 55.7 154.6 51.5 216.9-15.5l17.8-17.8zM320 416c-53 0-96-43-96-96s43-96 96-96s96 43 96 96s-43 96-96 96zm14.1 54.4l-62.8-8c-9.3-1.2-16.7-8.6-17.9-17.9l-8-62.8c-1.9-14.5 14.1-24.4 26.4-16.7l87.7 54.8c12.3 7.7 12.3 25.8 0 33.5l-25.4 15.8zm241.3-161.1l-62.8-8c-9.3-1.2-16.7-8.6-17.9-17.9l-8-62.8c-1.9-14.5 14.1-24.4 26.4-16.7l87.7 54.8c12.3 7.7 12.3 25.8 0 33.5l-25.4 15.8z"/></svg>